<svg width="340" height="320" viewBox="0 0 340 320" preserveAspectRatio="xMidYMid meet" xmlns="http://www.w3.org/2000/svg">
  <text x="30" y="34" font-family="sans-serif" font-size="13" fill="#1E40AF">間違いは、書き足す</text>
  <path d="M31.2 47.3 Q121.6 47.8 211.9 45.9 Q210.8 73.8 210.2 101.6 Q120.4 102.4 30.6 101.4 Q31.6 74.9 29 48.6" fill="none" stroke="#4B5563" stroke-width="1.5" stroke-linejoin="round" stroke-linecap="round"/><path d="M31.2 47.3 Q121.6 47.4 211.9 45.9 Q209.1 73.7 210.2 101.6 Q120.4 99.8 30.6 101.4 Q30.3 74.4 32.1 47.4" fill="none" stroke="#4B5563" stroke-width="1.5" stroke-linejoin="round" stroke-linecap="round"/>
  <path d="M44.3 70 Q120.5 70 196.7 66.2" fill="none" stroke="#9CA3AF" stroke-width="1" stroke-linejoin="round" stroke-linecap="round"/><path d="M44.3 70 Q120.5 69.7 196.7 66.2" fill="none" stroke="#9CA3AF" stroke-width="1" stroke-linejoin="round" stroke-linecap="round"/>
  <path d="M42.6 85.5 Q106.7 82.1 170.9 82.1" fill="none" stroke="#9CA3AF" stroke-width="1" stroke-linejoin="round" stroke-linecap="round"/><path d="M42.6 85.5 Q106.8 83.6 170.9 82.1" fill="none" stroke="#9CA3AF" stroke-width="1" stroke-linejoin="round" stroke-linecap="round"/>
  <path d="M29.4 102.8 Q119.8 103.4 210.2 103.1 Q210 120.2 212.2 137.1 Q121.2 138.4 30.2 139.3 Q29.2 121.7 30.8 104.3" fill="none" stroke="#1E40AF" stroke-width="1.5" stroke-dasharray="5 3" stroke-linejoin="round" stroke-linecap="round"/>
  <text x="120" y="126" text-anchor="middle" font-family="sans-serif" font-size="13" fill="#1E40AF">これは違っていた</text>
  <text x="248" y="98" font-family="sans-serif" font-size="13" fill="#4B5563">残る</text>

  <path d="M30.8 168.4 Q170.3 170.5 309.8 170" fill="none" stroke="#E2E8F0" stroke-width="1" stroke-linejoin="round" stroke-linecap="round"/><path d="M30.8 168.4 Q170.3 169.1 309.8 170" fill="none" stroke="#E2E8F0" stroke-width="1" stroke-linejoin="round" stroke-linecap="round"/>

  <text x="30" y="200" font-family="sans-serif" font-size="13" fill="#9CA3AF">消すのは重複だけ</text>
  <path d="M30.3 216.1 Q86.4 213 142.7 213.6 Q142.5 231 140.9 248.3 Q86.2 249.4 31.5 247.6 Q32.4 231 31.6 214.5" fill="none" stroke="#4B5563" stroke-width="1.5" stroke-linejoin="round" stroke-linecap="round"/><path d="M30.3 216.1 Q86.5 215.6 142.7 213.6 Q142.5 231 140.9 248.3 Q86.2 246.9 31.5 247.6 Q30.6 230.8 29.5 213.9" fill="none" stroke="#4B5563" stroke-width="1.5" stroke-linejoin="round" stroke-linecap="round"/>
  <path d="M45.3 234.7 Q87 233.8 128.8 232.5" fill="none" stroke="#9CA3AF" stroke-width="1" stroke-linejoin="round" stroke-linecap="round"/><path d="M45.3 234.7 Q87 231.7 128.8 232.5" fill="none" stroke="#9CA3AF" stroke-width="1" stroke-linejoin="round" stroke-linecap="round"/>
  <path d="M157.3 213.4 Q213.1 213.4 268.7 215.7 Q269 231.6 270.3 247.6 Q214.1 247.1 158 247.9 Q160 231.1 158.9 214.3" fill="none" stroke="#9CA3AF" stroke-width="1" stroke-dasharray="4 3" stroke-linejoin="round" stroke-linecap="round"/>
  <path d="M164.2 210.3 Q213.7 232.5 264.6 251.5" fill="none" stroke="#9CA3AF" stroke-width="1.5" stroke-linejoin="round" stroke-linecap="round"/><path d="M164.2 210.3 Q214.8 229.9 264.6 251.5" fill="none" stroke="#9CA3AF" stroke-width="1.5" stroke-linejoin="round" stroke-linecap="round"/>
  <path d="M265.2 212 Q214.1 231.6 162.9 251.2" fill="none" stroke="#9CA3AF" stroke-width="1.5" stroke-linejoin="round" stroke-linecap="round"/><path d="M265.2 212 Q214.2 231.8 162.9 251.2" fill="none" stroke="#9CA3AF" stroke-width="1.5" stroke-linejoin="round" stroke-linecap="round"/>

  <text x="170" y="292" text-anchor="middle" font-family="sans-serif" font-size="14" fill="#1F2937">履歴を消さずに、量だけ減らす</text>
</svg>
