<svg width="340" height="320" viewBox="0 0 340 320" preserveAspectRatio="xMidYMid meet" xmlns="http://www.w3.org/2000/svg">
  <text x="30" y="34" font-family="sans-serif" font-size="13" fill="#9CA3AF">網（入口が無い）</text>
  <line x1="60" y1="86" x2="128" y2="62" stroke="#9CA3AF" stroke-width="1"/>
  <line x1="60" y1="86" x2="104" y2="132" stroke="#1E40AF" stroke-width="2.5"/>
  <line x1="128" y1="62" x2="196" y2="104" stroke="#9CA3AF" stroke-width="1"/>
  <line x1="104" y1="132" x2="196" y2="104" stroke="#1E40AF" stroke-width="2.5"/>
  <line x1="196" y1="104" x2="262" y2="140" stroke="#1E40AF" stroke-width="2.5"/>
  <line x1="104" y1="132" x2="180" y2="150" stroke="#9CA3AF" stroke-width="1"/>
  <circle cx="60" cy="86" r="11" fill="#FFFFFF" stroke="#1E40AF" stroke-width="2"/>
  <circle cx="128" cy="62" r="11" fill="#FFFFFF" stroke="#9CA3AF" stroke-width="1.5"/>
  <circle cx="104" cy="132" r="11" fill="#FFFFFF" stroke="#1E40AF" stroke-width="2"/>
  <circle cx="196" cy="104" r="11" fill="#FFFFFF" stroke="#1E40AF" stroke-width="2"/>
  <circle cx="180" cy="150" r="11" fill="#FFFFFF" stroke="#9CA3AF" stroke-width="1.5"/>
  <circle cx="262" cy="140" r="11" fill="#FFFFFF" stroke="#1E40AF" stroke-width="2"/>

  <line x1="170" y1="182" x2="170" y2="212" stroke="#4B5563" stroke-width="1.5"/>
  <path d="M170 214 l-5 -9 l10 0 z" fill="#4B5563"/>
  <text x="186" y="204" font-family="sans-serif" font-size="13" fill="#4B5563">切り出す</text>

  <circle cx="52" cy="248" r="11" fill="#FFFFFF" stroke="#1E40AF" stroke-width="2"/>
  <line x1="63" y1="248" x2="87" y2="248" stroke="#1E40AF" stroke-width="2"/>
  <circle cx="98" cy="248" r="11" fill="#FFFFFF" stroke="#1E40AF" stroke-width="2"/>
  <line x1="109" y1="248" x2="133" y2="248" stroke="#1E40AF" stroke-width="2"/>
  <circle cx="144" cy="248" r="11" fill="#FFFFFF" stroke="#1E40AF" stroke-width="2"/>
  <line x1="155" y1="248" x2="179" y2="248" stroke="#1E40AF" stroke-width="2"/>
  <circle cx="190" cy="248" r="11" fill="#FFFFFF" stroke="#1E40AF" stroke-width="2"/>
  <text x="240" y="253" font-family="sans-serif" font-size="13" fill="#1E40AF">1本の道</text>

  <text x="170" y="296" text-anchor="middle" font-family="sans-serif" font-size="14" fill="#1F2937">網は残したまま、道だけを配る</text>
</svg>
