<svg width="340" height="320" viewBox="0 0 340 320" preserveAspectRatio="xMidYMid meet" xmlns="http://www.w3.org/2000/svg">
  <circle cx="170" cy="150" r="94" fill="none" stroke="#E2E8F0" stroke-width="1"/>

  <path d="M76 150 A94 94 0 0 1 264 150" fill="none" stroke="#4B5563" stroke-width="2.5"/>
  <path d="M264 150 A94 94 0 0 1 76 150" fill="none" stroke="#1E40AF" stroke-width="2.5" stroke-dasharray="6 4"/>

  <text x="170" y="42" text-anchor="middle" font-family="sans-serif" font-size="13" fill="#4B5563">昼 — 人が素材を置く</text>
  <text x="170" y="272" text-anchor="middle" font-family="sans-serif" font-size="13" fill="#1E40AF">夜 — AI が整える</text>

  <path d="M266 146 l-4 -10 l10 3 z" fill="#4B5563"/>
  <path d="M74 154 l4 10 l-10 -3 z" fill="#1E40AF"/>

  <rect x="120" y="106" width="100" height="24" rx="3" fill="none" stroke="#4B5563" stroke-width="1.5"/>
  <text x="170" y="123" text-anchor="middle" font-family="sans-serif" font-size="12" fill="#4B5563">溜まった素材</text>

  <line x1="170" y1="136" x2="170" y2="160" stroke="#1E40AF" stroke-width="1.5"/>
  <path d="M170 162 l-5 -9 l10 0 z" fill="#1E40AF"/>

  <rect x="112" y="168" width="116" height="24" rx="3" fill="none" stroke="#1E40AF" stroke-width="1.5"/>
  <text x="170" y="185" text-anchor="middle" font-family="sans-serif" font-size="12" fill="#1E40AF">繋ぎ直し・索引</text>

  <text x="170" y="308" text-anchor="middle" font-family="sans-serif" font-size="14" fill="#1F2937">朝には整っている</text>
</svg>
