<svg width="340" height="320" viewBox="0 0 340 320" preserveAspectRatio="xMidYMid meet" xmlns="http://www.w3.org/2000/svg">
  <text x="30" y="34" font-family="sans-serif" font-size="13" fill="#4B5563">年輪（足すだけ）</text>

  <path d="M30.7 46.9 Q149.9 46.8 269.2 50.1 Q269.5 61.3 272.1 72.3 Q150.1 71 28.1 73.7 Q30.3 60.1 31.1 46.4" fill="none" stroke="#4B5563" stroke-width="1.5" stroke-linejoin="round" stroke-linecap="round"/><path d="M30.7 46.9 Q149.9 46.9 269.2 50.1 Q270.9 61.2 272.1 72.3 Q150.1 73.2 28.1 73.7 Q29.6 59.7 31.9 45.9" fill="none" stroke="#4B5563" stroke-width="1.5" stroke-linejoin="round" stroke-linecap="round"/>
  <text x="42" y="66" font-family="sans-serif" font-size="12" fill="#4B5563">A だと考えた</text>
  <path d="M31.2 80.7 Q150 83.6 268.8 83.8 Q271.4 96.3 271.8 109.2 Q150.7 108.1 29.7 106.6 Q32.3 92.5 33.4 78.2" fill="none" stroke="#4B5563" stroke-width="1.5" stroke-linejoin="round" stroke-linecap="round"/><path d="M31.2 80.7 Q150 81.1 268.8 83.8 Q271.4 96.3 271.8 109.2 Q150.7 109.6 29.7 106.6 Q31.7 94.5 32.7 82.2" fill="none" stroke="#4B5563" stroke-width="1.5" stroke-linejoin="round" stroke-linecap="round"/>
  <text x="42" y="100" font-family="sans-serif" font-size="12" fill="#4B5563">反例が出た</text>
  <path d="M32.2 114.3 Q151.2 114.5 270.1 118.2 Q270 130.3 268 142.3 Q149.9 139.6 31.8 140.1 Q31.7 127.7 30.8 115.3" fill="none" stroke="#4B5563" stroke-width="1.5" stroke-linejoin="round" stroke-linecap="round"/><path d="M32.2 114.3 Q151.1 116.8 270.1 118.2 Q268.9 130.2 268 142.3 Q149.9 139.9 31.8 140.1 Q31.7 127.4 33.2 114.9" fill="none" stroke="#4B5563" stroke-width="1.5" stroke-linejoin="round" stroke-linecap="round"/>
  <text x="42" y="134" font-family="sans-serif" font-size="12" fill="#4B5563">B に変えた</text>

  <path d="M289.6 47.2 Q289.3 100.3 288.7 153.4" fill="none" stroke="#9CA3AF" stroke-width="1" stroke-linejoin="round" stroke-linecap="round"/><path d="M289.6 47.2 Q289.1 100.3 288.7 153.4" fill="none" stroke="#9CA3AF" stroke-width="1" stroke-linejoin="round" stroke-linecap="round"/>
  <path d="M290 154 l-4 -9 l8 0 z" fill="#9CA3AF"/>
  <text x="298" y="106" font-family="sans-serif" font-size="12" fill="#9CA3AF">時間</text>

  <path d="M151.2 151.7 Q153.2 170.6 152.2 189.6" fill="none" stroke="#1E40AF" stroke-width="1.5" stroke-linejoin="round" stroke-linecap="round"/><path d="M151.2 151.7 Q151.7 170.6 152.2 189.6" fill="none" stroke="#1E40AF" stroke-width="1.5" stroke-linejoin="round" stroke-linecap="round"/>
  <path d="M150 190 l-5 -9 l10 0 z" fill="#1E40AF"/>
  <text x="164" y="176" font-family="sans-serif" font-size="12" fill="#1E40AF">射影</text>

  <path d="M58.5 196.9 Q149.5 195.7 240.4 197.3 Q240.5 218.4 241.1 239.5 Q151 237.1 61 238.6 Q60.2 218.6 58 198.7" fill="none" stroke="#1E40AF" stroke-width="2" stroke-linejoin="round" stroke-linecap="round"/><path d="M58.5 196.9 Q149.4 198.7 240.4 197.3 Q239.2 218.4 241.1 239.5 Q151 240.3 61 238.6 Q60.3 217.2 57.1 196" fill="none" stroke="#1E40AF" stroke-width="2" stroke-linejoin="round" stroke-linecap="round"/>
  <text x="150" y="218" text-anchor="middle" font-family="sans-serif" font-size="13" fill="#1E40AF">いまの結論: B</text>
  <text x="150" y="234" text-anchor="middle" font-family="sans-serif" font-size="11" fill="#1E40AF">導かれるもの・書き換えない</text>

  <text x="170" y="278" text-anchor="middle" font-family="sans-serif" font-size="14" fill="#1F2937">上書きしないから、理由が残る</text>
</svg>
