<svg width="308" height="290" viewBox="14 15 308 290" preserveAspectRatio="xMidYMid meet" xmlns="http://www.w3.org/2000/svg">
  <text x="24" y="34" font-family="sans-serif" font-size="13" fill="#9CA3AF">差し替わる</text>
  <path d="M23 45.4 Q85.8 43.7 148.7 44.8 Q147.3 63.7 149.6 82.6 Q86.6 83.2 23.7 82.2 Q23.7 63.1 20.8 44.2" fill="none" stroke="#9CA3AF" stroke-width="1" stroke-dasharray="4 3" stroke-linejoin="round" stroke-linecap="round"/>
  <text x="86" y="70" text-anchor="middle" font-family="sans-serif" font-size="13" fill="#9CA3AF">目的 v1</text>
  <path d="M23.8 97.8 Q84.8 100.2 145.8 99.6 Q147.1 117.4 146.6 135.3 Q84.9 137.1 23.1 135.8 Q21.1 118 22.4 100.2" fill="none" stroke="#9CA3AF" stroke-width="1" stroke-dasharray="4 3" stroke-linejoin="round" stroke-linecap="round"/>
  <text x="86" y="122" text-anchor="middle" font-family="sans-serif" font-size="13" fill="#9CA3AF">目的 v2</text>
  <path d="M25.4 149.4 Q86.3 150.7 147.2 150 Q149.1 168.5 149.8 187.1 Q86.8 188.8 23.8 188.5 Q25.7 168.8 26.6 149.1" fill="none" stroke="#4B5563" stroke-width="1.5" stroke-linejoin="round" stroke-linecap="round"/><path d="M25.4 149.4 Q86.3 151.2 147.2 150 Q148.3 168.6 149.8 187.1 Q86.8 188.3 23.8 188.5 Q23.9 167.9 23 147.3" fill="none" stroke="#4B5563" stroke-width="1.5" stroke-linejoin="round" stroke-linecap="round"/>
  <text x="86" y="174" text-anchor="middle" font-family="sans-serif" font-size="13" fill="#4B5563">目的 v3</text>

  <path d="M152.9 63.1 Q171 63.4 189.1 63.6" fill="none" stroke="#9CA3AF" stroke-width="1" stroke-linejoin="round" stroke-linecap="round"/><path d="M152.9 63.1 Q171 63.5 189.1 63.6" fill="none" stroke="#9CA3AF" stroke-width="1" stroke-linejoin="round" stroke-linecap="round"/>
  <path d="M153.9 116.5 Q172.1 115.4 190.3 115.2" fill="none" stroke="#9CA3AF" stroke-width="1" stroke-linejoin="round" stroke-linecap="round"/><path d="M153.9 116.5 Q172 114.7 190.3 115.2" fill="none" stroke="#9CA3AF" stroke-width="1" stroke-linejoin="round" stroke-linecap="round"/>
  <path d="M151.7 167 Q171.3 168.4 190.8 169.4" fill="none" stroke="#4B5563" stroke-width="1.5" stroke-linejoin="round" stroke-linecap="round"/><path d="M151.7 167 Q171.3 168.3 190.8 169.4" fill="none" stroke="#4B5563" stroke-width="1.5" stroke-linejoin="round" stroke-linecap="round"/>

  <text x="196" y="34" font-family="sans-serif" font-size="13" fill="#1E40AF">動かさない</text>
  <path d="M195.6 44.6 Q253.8 47.1 312.1 47.8 Q312.8 121.4 312.8 194.9 Q254.3 196.9 195.8 197.8 Q196 121 196.2 44.2" fill="none" stroke="#1E40AF" stroke-width="1.5" stroke-linejoin="round" stroke-linecap="round"/><path d="M195.6 44.6 Q253.9 45.2 312.1 47.8 Q314.3 121.4 312.8 194.9 Q254.3 196 195.8 197.8 Q194.7 121.2 194.1 44.5" fill="none" stroke="#1E40AF" stroke-width="1.5" stroke-linejoin="round" stroke-linecap="round"/>
  <text x="255" y="72" text-anchor="middle" font-family="sans-serif" font-size="13" fill="#1E40AF">物差し</text>
  <path d="M208.1 88 Q254.6 85.6 301.1 86.1" fill="none" stroke="#9CA3AF" stroke-width="1" stroke-linejoin="round" stroke-linecap="round"/><path d="M208.1 88 Q254.6 85.3 301.1 86.1" fill="none" stroke="#9CA3AF" stroke-width="1" stroke-linejoin="round" stroke-linecap="round"/>
  <text x="255" y="108" text-anchor="middle" font-family="sans-serif" font-size="12" fill="#4B5563">読み返されたか</text>
  <path d="M209 122.5 Q255.2 121 301.5 121.7" fill="none" stroke="#9CA3AF" stroke-width="1" stroke-linejoin="round" stroke-linecap="round"/><path d="M209 122.5 Q255.3 122.4 301.5 121.7" fill="none" stroke="#9CA3AF" stroke-width="1" stroke-linejoin="round" stroke-linecap="round"/>
  <text x="255" y="144" text-anchor="middle" font-family="sans-serif" font-size="12" fill="#4B5563">人に渡せたか</text>
  <path d="M205.9 156.1 Q254.3 158.7 302.8 157.6" fill="none" stroke="#9CA3AF" stroke-width="1" stroke-linejoin="round" stroke-linecap="round"/><path d="M205.9 156.1 Q254.4 155 302.8 157.6" fill="none" stroke="#9CA3AF" stroke-width="1" stroke-linejoin="round" stroke-linecap="round"/>
  <text x="255" y="180" text-anchor="middle" font-family="sans-serif" font-size="12" fill="#4B5563">問いが増えたか</text>

  <text x="170" y="234" text-anchor="middle" font-family="sans-serif" font-size="13" fill="#4B5563">目的が変わっても、測り方は変えない</text>
  <path d="M58.9 254.9 Q169.5 257.3 280.2 257" fill="none" stroke="#9CA3AF" stroke-width="1" stroke-dasharray="4 3" stroke-linejoin="round" stroke-linecap="round"/>
  <text x="170" y="294" text-anchor="middle" font-family="sans-serif" font-size="14" fill="#1F2937">先に置いた物差しだけが、比べさせる</text>
</svg>
