<svg width="340" height="320" viewBox="0 0 340 320" preserveAspectRatio="xMidYMid meet" xmlns="http://www.w3.org/2000/svg">
  <text x="82" y="56" text-anchor="middle" font-family="sans-serif" font-size="13" fill="#9CA3AF">一人分に入らない</text>
  <text x="252" y="56" text-anchor="middle" font-family="sans-serif" font-size="13" fill="#1E40AF">＋ 手分け</text>
  <path d="M35.6 77.6 Q82.9 78.9 130.3 78.5 Q129.6 109.6 130.6 140.6 Q82.3 140.1 34 141.6 Q33.5 109.3 36.4 77.1" fill="none" stroke="#9CA3AF" stroke-width="1.5" stroke-linejoin="round" stroke-linecap="round"/><path d="M35.6 77.6 Q82.9 79.6 130.3 78.5 Q131.6 109.6 130.6 140.6 Q82.3 142.4 34 141.6 Q35 109.4 36.9 77.3" fill="none" stroke="#9CA3AF" stroke-width="1.5" stroke-linejoin="round" stroke-linecap="round"/>
  <path d="M42.6 89.2 Q52.9 88.3 63.3 88.2 Q63.4 95.1 62.9 102 Q51.9 104.6 40.6 105.2 Q40.6 96.7 40.9 88.2" fill="none" stroke="#4B5563" stroke-width="1" stroke-linejoin="round" stroke-linecap="round"/><path d="M42.6 89.2 Q53 89 63.3 88.2 Q62.9 95.1 62.9 102 Q51.8 104.2 40.6 105.2 Q40.8 97 40.5 88.8" fill="none" stroke="#4B5563" stroke-width="1" stroke-linejoin="round" stroke-linecap="round"/>
  <path d="M68.4 88.5 Q81.1 86.9 93.9 86.6 Q93 94.5 93.6 102.4 Q82.7 103.6 71.9 105.7 Q69.9 96.8 69.8 87.7" fill="none" stroke="#4B5563" stroke-width="1" stroke-linejoin="round" stroke-linecap="round"/><path d="M68.4 88.5 Q81.1 86.4 93.9 86.6 Q93.7 94.5 93.6 102.4 Q82.8 104.6 71.9 105.7 Q71.5 97.8 69.9 90" fill="none" stroke="#4B5563" stroke-width="1" stroke-linejoin="round" stroke-linecap="round"/>
  <path d="M98.6 88.7 Q110.2 87.8 121.8 87.9 Q121 96.5 121.5 105 Q108.6 104.9 95.9 102.8 Q96.9 95.9 97.1 88.9" fill="none" stroke="#4B5563" stroke-width="1" stroke-linejoin="round" stroke-linecap="round"/><path d="M98.6 88.7 Q110.1 87.3 121.8 87.9 Q121.6 96.5 121.5 105 Q108.8 103.2 95.9 102.8 Q99 96 100.7 88.8" fill="none" stroke="#4B5563" stroke-width="1" stroke-linejoin="round" stroke-linecap="round"/>
  <path d="M43.8 113.7 Q53.1 113 62.4 112.2 Q64.3 120.3 65.9 128.4 Q53.4 127 40.8 125.8 Q42.7 121.1 44 116.2" fill="none" stroke="#4B5563" stroke-width="1" stroke-linejoin="round" stroke-linecap="round"/><path d="M43.8 113.7 Q53.1 112.6 62.4 112.2 Q63.6 120.4 65.9 128.4 Q53.3 128 40.8 125.8 Q42.7 119 43.6 112" fill="none" stroke="#4B5563" stroke-width="1" stroke-linejoin="round" stroke-linecap="round"/>
  <path d="M68.7 112.9 Q80.7 113.9 92.7 112.6 Q92.7 119.7 92.4 126.8 Q82.2 127.5 72 127.8 Q70.1 119.4 68.6 110.9" fill="none" stroke="#4B5563" stroke-width="1" stroke-linejoin="round" stroke-linecap="round"/><path d="M68.7 112.9 Q80.7 113.4 92.7 112.6 Q92.7 119.7 92.4 126.8 Q82.2 126.8 72 127.8 Q71.8 120.9 71.1 114" fill="none" stroke="#4B5563" stroke-width="1" stroke-linejoin="round" stroke-linecap="round"/>
  <path d="M96.9 110.9 Q109.3 110.7 121.6 111.6 Q119.8 120.2 118.9 128.9 Q108 128.8 97.1 128.9 Q96.8 120.8 96.8 112.7" fill="none" stroke="#4B5563" stroke-width="1" stroke-linejoin="round" stroke-linecap="round"/><path d="M96.9 110.9 Q109.2 112.1 121.6 111.6 Q120.9 120.4 118.9 128.9 Q108 129.1 97.1 128.9 Q97 119.4 98.3 110" fill="none" stroke="#4B5563" stroke-width="1" stroke-linejoin="round" stroke-linecap="round"/>
  <path d="M103.8 127.7 Q115.5 128.6 127.2 128.1 Q126.3 135.6 124.8 143.1 Q114.1 142.4 103.4 143.3 Q103.9 136.2 104 129.1" fill="none" stroke="#9CA3AF" stroke-width="1" stroke-dasharray="3 3" stroke-linejoin="round" stroke-linecap="round"/>
  <text x="82" y="164" text-anchor="middle" font-family="sans-serif" font-size="12" fill="#9CA3AF">入りきらない</text>
  <text x="82" y="200" text-anchor="middle" font-family="sans-serif" font-size="12" fill="#9CA3AF">古い話から消える</text>
  <path d="M203.5 66.7 Q251.2 64 299 64.9 Q300.1 78.1 300.8 91.3 Q253.1 91.4 205.6 89.3 Q206.3 78.2 205.6 67.2" fill="none" stroke="#1E40AF" stroke-width="1.5" stroke-linejoin="round" stroke-linecap="round"/><path d="M203.5 66.7 Q251.3 67.2 299 64.9 Q300.9 78 300.8 91.3 Q253.1 92.2 205.6 89.3 Q204.5 77.4 202.1 65.7" fill="none" stroke="#1E40AF" stroke-width="1.5" stroke-linejoin="round" stroke-linecap="round"/>
  <text x="252" y="82" text-anchor="middle" font-family="sans-serif" font-size="11" fill="#1E40AF">段取り役</text>
  <path d="M252.2 92.2 Q229.6 98 207.3 104.8" fill="none" stroke="#1E40AF" stroke-width="1" stroke-linejoin="round" stroke-linecap="round"/><path d="M252.2 92.2 Q229.2 96.7 207.3 104.8" fill="none" stroke="#1E40AF" stroke-width="1" stroke-linejoin="round" stroke-linecap="round"/>
  <path d="M188 107.9 Q205.4 105.7 223 105.4 Q223.7 119.7 224.6 134.1 Q206.7 135.5 188.8 135.8 Q187.2 122.2 188 108.5" fill="none" stroke="#1E40AF" stroke-width="1.5" stroke-linejoin="round" stroke-linecap="round"/><path d="M188 107.9 Q205.4 105.6 223 105.4 Q224.2 119.7 224.6 134.1 Q206.7 135.2 188.8 135.8 Q187.9 122.9 186.7 109.9" fill="none" stroke="#1E40AF" stroke-width="1.5" stroke-linejoin="round" stroke-linecap="round"/>
  <text x="206" y="125" text-anchor="middle" font-family="sans-serif" font-size="10" fill="#1E40AF">LLM</text>
  <path d="M204.5 135.3 Q229.3 142.4 252.7 153.1" fill="none" stroke="#1E40AF" stroke-width="1" stroke-linejoin="round" stroke-linecap="round"/><path d="M204.5 135.3 Q228.6 144.2 252.7 153.1" fill="none" stroke="#1E40AF" stroke-width="1" stroke-linejoin="round" stroke-linecap="round"/>
  <path d="M251 90.2 Q250.6 97.9 250.9 105.5" fill="none" stroke="#1E40AF" stroke-width="1" stroke-linejoin="round" stroke-linecap="round"/><path d="M251 90.2 Q251.3 97.9 250.9 105.5" fill="none" stroke="#1E40AF" stroke-width="1" stroke-linejoin="round" stroke-linecap="round"/>
  <path d="M231.5 104.1 Q250.2 104.7 269 104.6 Q269 121.4 271.4 138 Q252 139.2 232.7 137.5 Q231.2 119.9 231.7 102.3" fill="none" stroke="#1E40AF" stroke-width="1.5" stroke-linejoin="round" stroke-linecap="round"/><path d="M231.5 104.1 Q250.3 103.7 269 104.6 Q269 121.4 271.4 138 Q252.1 137.1 232.7 137.5 Q231.3 120.2 229.1 103.1" fill="none" stroke="#1E40AF" stroke-width="1.5" stroke-linejoin="round" stroke-linecap="round"/>
  <text x="252" y="125" text-anchor="middle" font-family="sans-serif" font-size="10" fill="#1E40AF">LLM</text>
  <path d="M250.1 138 Q250.2 145.7 250.9 153.4" fill="none" stroke="#1E40AF" stroke-width="1" stroke-linejoin="round" stroke-linecap="round"/><path d="M250.1 138 Q249.8 145.7 250.9 153.4" fill="none" stroke="#1E40AF" stroke-width="1" stroke-linejoin="round" stroke-linecap="round"/>
  <path d="M251 92 Q274.1 98.8 297.7 104.1" fill="none" stroke="#1E40AF" stroke-width="1" stroke-linejoin="round" stroke-linecap="round"/><path d="M251 92 Q273.9 99.8 297.7 104.1" fill="none" stroke="#1E40AF" stroke-width="1" stroke-linejoin="round" stroke-linecap="round"/>
  <path d="M279.7 106.5 Q297.7 108.6 315.9 107.8 Q315.2 121.7 316.4 135.6 Q297.4 136.2 278.5 134.8 Q278.9 120.6 277.7 106.5" fill="none" stroke="#1E40AF" stroke-width="1.5" stroke-linejoin="round" stroke-linecap="round"/><path d="M279.7 106.5 Q297.8 106.9 315.9 107.8 Q316 121.7 316.4 135.6 Q297.4 136 278.5 134.8 Q279.1 120.2 279.2 105.6" fill="none" stroke="#1E40AF" stroke-width="1.5" stroke-linejoin="round" stroke-linecap="round"/>
  <text x="298" y="125" text-anchor="middle" font-family="sans-serif" font-size="10" fill="#1E40AF">LLM</text>
  <path d="M300 135.5 Q276.9 144.4 253.2 151.6" fill="none" stroke="#1E40AF" stroke-width="1" stroke-linejoin="round" stroke-linecap="round"/><path d="M300 135.5 Q276.3 142.7 253.2 151.6" fill="none" stroke="#1E40AF" stroke-width="1" stroke-linejoin="round" stroke-linecap="round"/>
  <path d="M205.2 151.8 Q252.7 150.8 300.2 152.5 Q300.7 163.3 299.3 173.9 Q252.2 173.1 205.2 174 Q204.6 163.8 203.2 153.7" fill="none" stroke="#1E40AF" stroke-width="1.5" stroke-linejoin="round" stroke-linecap="round"/><path d="M205.2 151.8 Q252.7 152.1 300.2 152.5 Q300.3 163.3 299.3 173.9 Q252.2 173.9 205.2 174 Q204.6 161.8 205.9 149.7" fill="none" stroke="#1E40AF" stroke-width="1.5" stroke-linejoin="round" stroke-linecap="round"/>
  <text x="252" y="168" text-anchor="middle" font-family="sans-serif" font-size="11" fill="#1E40AF">持ち寄る</text>
  <text x="252" y="200" text-anchor="middle" font-family="sans-serif" font-size="12" fill="#1E40AF">別々の文脈で並列</text>

  <text x="170" y="268" text-anchor="middle" font-family="sans-serif" font-size="14" fill="#1F2937">足すのは「並列と別の文脈」</text>
  <text x="170" y="292" text-anchor="middle" font-family="sans-serif" font-size="13" fill="#9CA3AF">分けた継ぎ目が、そのまま失敗の口になる</text>
</svg>
