<svg width="310" height="292" viewBox="10 34 310 292" xmlns="http://www.w3.org/2000/svg">
  <path d="M30.6 140.7 Q170.6 142.2 310.6 141.2" fill="none" stroke="#9CA3AF" stroke-width="1.5" stroke-linejoin="round" stroke-linecap="round"/><path d="M30.6 140.7 Q170.6 139.9 310.6 141.2" fill="none" stroke="#9CA3AF" stroke-width="1.5" stroke-linejoin="round" stroke-linecap="round"/>
  <path d="M47 109.6 Q59.5 108.9 72 108.6 Q72 122.7 74.6 136.6 Q60.9 137.7 47.1 137.1 Q47.1 122.1 49.1 107.2" stroke="#9CA3AF" stroke-width="1.5" fill="none" stroke-linejoin="round" stroke-linecap="round"/><path d="M47 109.6 Q59.5 108.3 72 108.6 Q74 122.5 74.6 136.6 Q60.9 137.4 47.1 137.1 Q47.8 122.3 47.8 107.5" fill="none" stroke="#9CA3AF" stroke-width="1.5" stroke-linejoin="round" stroke-linecap="round"/>
  <path d="M99.1 108.6 Q113 107.5 126.9 106.6 Q127.2 121.7 129.2 136.6 Q115.3 137.6 101.4 137.3 Q98.4 123.3 97.5 109.1" stroke="#9CA3AF" stroke-width="1.5" fill="none" stroke-linejoin="round" stroke-linecap="round"/><path d="M99.1 108.6 Q112.9 106.7 126.9 106.6 Q126.6 121.7 129.2 136.6 Q115.3 137.6 101.4 137.3 Q99.5 123.7 99.8 109.9" fill="none" stroke="#9CA3AF" stroke-width="1.5" stroke-linejoin="round" stroke-linecap="round"/>
  <path d="M153.5 106.1 Q166.7 106.5 179.9 106.3 Q179 121.7 180 137 Q166.6 135 153.1 135 Q151.3 120.2 151.8 105.3" stroke="#B91C1C" stroke-width="1.5" fill="none" stroke-linejoin="round" stroke-linecap="round"/><path d="M153.5 106.1 Q166.7 105.2 179.9 106.3 Q181.4 121.7 180 137 Q166.6 135.4 153.1 135 Q153 119.8 152.8 104.6" fill="none" stroke="#B91C1C" stroke-width="1.5" stroke-linejoin="round" stroke-linecap="round"/>
  <path d="M203.4 81.9 Q205.6 140.1 204.7 198.3" fill="none" stroke="#1E40AF" stroke-width="2" stroke-linejoin="round" stroke-linecap="round"/><path d="M203.4 81.9 Q203.7 140.1 204.7 198.3" fill="none" stroke="#1E40AF" stroke-width="2" stroke-linejoin="round" stroke-linecap="round"/>
  <path d="M219 80.4 Q219 140.4 219.6 200.5" fill="none" stroke="#1E40AF" stroke-width="2" stroke-linejoin="round" stroke-linecap="round"/><path d="M219 80.4 Q220.8 140.4 219.6 200.5" fill="none" stroke="#1E40AF" stroke-width="2" stroke-linejoin="round" stroke-linecap="round"/>
  <text x="212" y="68" text-anchor="middle" font-family="sans-serif" font-size="12" fill="#1E40AF">検査</text>
  <path d="M239.1 108.7 Q254.1 107.8 269 108.4 Q267.6 122.6 268.6 136.9 Q254.7 137 240.7 137.3 Q239.8 122.4 240.5 107.5" stroke="#9CA3AF" stroke-width="1.5" fill="none" stroke-linejoin="round" stroke-linecap="round"/><path d="M239.1 108.7 Q254.1 109.3 269 108.4 Q269.3 122.6 268.6 136.9 Q254.7 136.5 240.7 137.3 Q240.6 124.1 240.2 110.9" fill="none" stroke="#9CA3AF" stroke-width="1.5" stroke-linejoin="round" stroke-linecap="round"/>
  <path d="M282.8 110.1 Q297.7 111.4 312.6 109.8 Q311.7 122 310 134.2 Q297 135.2 284 134.6 Q283.8 122.7 281.9 111" stroke="#9CA3AF" stroke-width="1.5" fill="none" stroke-linejoin="round" stroke-linecap="round"/><path d="M282.8 110.1 Q297.7 109.7 312.6 109.8 Q311.8 122 310 134.2 Q297 135 284 134.6 Q282 123.4 281.2 112" fill="none" stroke="#9CA3AF" stroke-width="1.5" stroke-linejoin="round" stroke-linecap="round"/>
  <path d="M188.3 147.9 Q180.4 169.8 172.7 191.9" fill="none" stroke="#B91C1C" stroke-width="1.5" stroke-linejoin="round" stroke-linecap="round"/><path d="M188.3 147.9 Q181.2 170.1 172.7 191.9" fill="none" stroke="#B91C1C" stroke-width="1.5" stroke-linejoin="round" stroke-linecap="round"/>
  <path d="M170 197 l1 -10 l8 5 z" fill="#B91C1C"/>
  <text x="166" y="226" text-anchor="middle" font-family="sans-serif" font-size="22" fill="#B91C1C">✕</text>
  <text x="166" y="252" text-anchor="middle" font-family="sans-serif" font-size="12" fill="#B91C1C">その場で赤くなる</text>
  <text x="90" y="180" text-anchor="middle" font-family="sans-serif" font-size="12" fill="#9CA3AF">書いた1枚が流れてくる</text>
  <text x="170" y="300" text-anchor="middle" font-family="sans-serif" font-size="14" fill="#1F2937">読ませずに、検査で止める</text>
</svg>
