<svg width="340" height="320" viewBox="0 0 340 320" preserveAspectRatio="xMidYMid meet" xmlns="http://www.w3.org/2000/svg">
  <text x="82" y="56" text-anchor="middle" font-family="sans-serif" font-size="13" fill="#9CA3AF">言葉で当てにいく</text>
  <text x="252" y="56" text-anchor="middle" font-family="sans-serif" font-size="13" fill="#1E40AF">事例を積んだ側</text>

  <path d="M23.9 71 Q81.8 71.3 139.7 71.9 Q139.3 92.6 136.9 113.1 Q82.4 114.4 27.9 114.7 Q27.4 93.4 23 72.5" fill="none" stroke="#9CA3AF" stroke-width="1" stroke-linejoin="round" stroke-linecap="round"/><path d="M23.9 71 Q81.8 70.5 139.7 71.9 Q137.6 92.4 136.9 113.1 Q82.4 113.2 27.9 114.7 Q25.3 93 23 71.3" fill="none" stroke="#9CA3AF" stroke-width="1" stroke-linejoin="round" stroke-linecap="round"/>
  <text x="82" y="90" text-anchor="middle" font-family="sans-serif" font-size="12" fill="#9CA3AF">「たぶん」</text>
  <text x="82" y="107" text-anchor="middle" font-family="sans-serif" font-size="12" fill="#9CA3AF">3,200 くらい</text>
  <path d="M82.6 116.9 Q80.8 124.9 80 133.1" fill="none" stroke="#9CA3AF" stroke-width="1" stroke-linejoin="round" stroke-linecap="round"/><path d="M82.6 116.9 Q80.6 124.9 80 133.1" fill="none" stroke="#9CA3AF" stroke-width="1" stroke-linejoin="round" stroke-linecap="round"/>
  <path d="M83.3 138.9 Q80.7 134.1 78.1 129.3 Q82.4 128.5 86.6 128.1 Q84.6 133.4 83.3 138.9 Z" fill="#9CA3AF"/>

  <path d="M109.4 179.2 C107.7 194.4 93.8 204.9 78.8 203.2 C63.8 201.4 52.1 188.2 54 172.7 C55.8 157.2 69.5 145.5 85.4 147.3 C101.2 149.2 112.8 163.4 110.9 179.4" fill="none" stroke="#9CA3AF" stroke-width="1.5" stroke-linejoin="round" stroke-linecap="round"/><path d="M108.2 183.6 C104 198.1 88.8 206.2 74.4 202 C60.1 197.8 49.8 183.3 54.2 167.9 C58.7 152.6 75 145 89.8 149.3 C104.5 153.6 112.8 169.1 108.6 183.7" fill="none" stroke="#9CA3AF" stroke-width="1.5" stroke-linejoin="round" stroke-linecap="round"/>
  <path d="M96.8 176.2 C96.7 184.4 90 191 81.8 190.9 C73.5 190.8 68.9 183 69 175.8 C69.1 168.6 74.6 162.2 82.2 162.3 C89.8 162.4 97 168 96.9 176.2" fill="none" stroke="#9CA3AF" stroke-width="1" stroke-linejoin="round" stroke-linecap="round"/><path d="M95.5 176.4 C95.3 183.8 89.6 190.7 81.6 190.4 C73.6 190.2 67.7 183.4 67.9 175.6 C68.1 167.8 75 162.4 82.4 162.6 C89.8 162.8 97.4 168.1 97.1 176.4" fill="none" stroke="#9CA3AF" stroke-width="1" stroke-linejoin="round" stroke-linecap="round"/>
  <path d="M113.9 151.2 C114.3 153.4 112.9 155.5 110.8 155.9 C108.6 156.4 106.7 154.7 106.3 152.7 C106 150.7 106.9 148.2 109.2 147.8 C111.5 147.3 113.3 149.2 113.7 151.3 Z" fill="#9CA3AF"/>
  <text x="82" y="228" text-anchor="middle" font-family="sans-serif" font-size="12" fill="#9CA3AF">外した先を直せない</text>

  <path d="M196.3 70.6 Q208.4 71.3 220.5 71.7 Q220.7 78.9 221.7 86 Q209.2 86.9 196.6 86.8 Q196.5 79 196.7 71.3" fill="none" stroke="#1E40AF" stroke-width="1" stroke-linejoin="round" stroke-linecap="round"/><path d="M196.3 70.6 Q208.4 71.3 220.5 71.7 Q220.8 78.9 221.7 86 Q209.2 87.3 196.6 86.8 Q196.5 79.5 196.7 72.2" fill="none" stroke="#1E40AF" stroke-width="1" stroke-linejoin="round" stroke-linecap="round"/>
  <path d="M226.1 70.4 Q237.9 72.8 249.9 73.5 Q251.3 80.3 251.9 87.2 Q238.9 89.4 225.8 89.6 Q226.8 80.9 226.6 72.2" fill="none" stroke="#1E40AF" stroke-width="1" stroke-linejoin="round" stroke-linecap="round"/><path d="M226.1 70.4 Q237.9 72.7 249.9 73.5 Q250.5 80.4 251.9 87.2 Q238.8 88.7 225.8 89.6 Q226.3 80.6 226.2 71.6" fill="none" stroke="#1E40AF" stroke-width="1" stroke-linejoin="round" stroke-linecap="round"/>
  <path d="M255.8 73.9 Q268.5 71.9 281.3 70.4 Q281.2 78.9 281.8 87.4 Q267.8 87.7 253.8 89.5 Q255.3 81.3 255.8 73.1" fill="none" stroke="#1E40AF" stroke-width="1" stroke-linejoin="round" stroke-linecap="round"/><path d="M255.8 73.9 Q268.4 70.9 281.3 70.4 Q280.8 78.9 281.8 87.4 Q267.9 89.9 253.8 89.5 Q256.4 82.5 258.2 75.2" fill="none" stroke="#1E40AF" stroke-width="1" stroke-linejoin="round" stroke-linecap="round"/>
  <path d="M286.9 73.7 Q299.8 74.4 312.5 72.9 Q312.4 81.6 312.1 90.2 Q299.4 87.7 286.7 86.4 Q286.4 79.5 285.4 72.7" fill="none" stroke="#1E40AF" stroke-width="1" stroke-linejoin="round" stroke-linecap="round"/><path d="M286.9 73.7 Q299.7 72.6 312.5 72.9 Q313 81.6 312.1 90.2 Q299.3 88.9 286.7 86.4 Q286.8 80 285.7 73.7" fill="none" stroke="#1E40AF" stroke-width="1" stroke-linejoin="round" stroke-linecap="round"/>
  <path d="M209.5 92 Q222.3 90.7 235.1 90.9 Q235.9 99 235.1 107.1 Q222.6 107.2 210.3 109.3 Q211.4 101.3 211.5 93.4" fill="none" stroke="#1E40AF" stroke-width="1" stroke-linejoin="round" stroke-linecap="round"/><path d="M209.5 92 Q222.3 90.6 235.1 90.9 Q234.5 99 235.1 107.1 Q222.8 109.3 210.3 109.3 Q208.8 101.1 208.1 92.7" fill="none" stroke="#1E40AF" stroke-width="1" stroke-linejoin="round" stroke-linecap="round"/>
  <path d="M242.6 94.1 Q255.2 92.7 267.9 93.2 Q267.2 100.8 267.9 108.4 Q255.4 107.7 242.9 106.4 Q243 99.9 242 93.4" fill="none" stroke="#1E40AF" stroke-width="1" stroke-linejoin="round" stroke-linecap="round"/><path d="M242.6 94.1 Q255.3 93.6 267.9 93.2 Q267.4 100.8 267.9 108.4 Q255.3 108.5 242.9 106.4 Q242.4 101.4 242.2 96.4" fill="none" stroke="#1E40AF" stroke-width="1" stroke-linejoin="round" stroke-linecap="round"/>
  <path d="M269.4 92.1 Q282.7 92 295.8 90.3 Q296.9 99.9 296 109.5 Q283.5 109.7 271.1 109.4 Q270.5 101.2 268.6 93.3" fill="none" stroke="#1E40AF" stroke-width="1" stroke-linejoin="round" stroke-linecap="round"/><path d="M269.4 92.1 Q282.6 90.7 295.8 90.3 Q295.3 99.9 296 109.5 Q283.5 110.1 271.1 109.4 Q268.8 101.3 267.7 93" fill="none" stroke="#1E40AF" stroke-width="1" stroke-linejoin="round" stroke-linecap="round"/>
  <text x="252" y="126" text-anchor="middle" font-family="sans-serif" font-size="12" fill="#1E40AF">正解の付いた過去</text>
  <path d="M253.3 132.7 Q252.1 137.4 251.4 142.2" fill="none" stroke="#1E40AF" stroke-width="1" stroke-linejoin="round" stroke-linecap="round"/><path d="M253.3 132.7 Q252.7 137.5 251.4 142.2" fill="none" stroke="#1E40AF" stroke-width="1" stroke-linejoin="round" stroke-linecap="round"/>
  <path d="M250.5 150.1 Q248.8 144.1 246.4 138.2 Q250.2 138.4 253.9 138.7 Q252 144.3 250.5 150.1 Z" fill="#1E40AF"/>

  <path d="M277.1 193.3 C270.8 207.1 254.6 213.9 240.5 207.6 C226.4 201.2 220.6 184.6 226.8 170.7 C233.1 156.8 249.3 149.4 263.7 155.9 C278.1 162.4 284.8 179.3 278.3 193.8" fill="none" stroke="#1E40AF" stroke-width="1.5" stroke-linejoin="round" stroke-linecap="round"/><path d="M279.9 176.4 C282.9 191.8 273.4 207.3 257.7 210.4 C242 213.5 227 203.1 223.9 187.6 C220.8 172.1 231.1 157.2 246.4 154.2 C261.8 151.1 275.6 162.1 278.5 176.7" fill="none" stroke="#1E40AF" stroke-width="1.5" stroke-linejoin="round" stroke-linecap="round"/>
  <path d="M263.7 176.5 C266.7 183 264.8 191.3 257.9 194.5 C251 197.8 242.1 195.7 238.6 188.3 C235.1 180.9 238 171.8 245.5 168.3 C253.1 164.7 260.7 170 263.7 176.5" fill="none" stroke="#1E40AF" stroke-width="1" stroke-linejoin="round" stroke-linecap="round"/><path d="M265.4 185.3 C263.6 192.7 255.9 196.4 248.9 194.6 C241.9 192.9 235.3 186.5 237.3 178.4 C239.3 170.3 247.9 166.8 255.3 168.6 C262.7 170.4 266.3 178.1 264.6 185.1" fill="none" stroke="#1E40AF" stroke-width="1" stroke-linejoin="round" stroke-linecap="round"/>
  <path d="M256.2 182.8 C255.7 185.1 253.5 186.7 251.2 186.3 C248.8 185.8 247.5 183.5 247.9 181.2 C248.3 178.9 250.5 177.6 252.8 178 C255 178.4 256.3 180.6 255.9 182.8 Z" fill="#1E40AF"/>
  <text x="252" y="228" text-anchor="middle" font-family="sans-serif" font-size="12" fill="#1E40AF">なぜ当たるかは言えない</text>

  <text x="170" y="268" text-anchor="middle" font-family="sans-serif" font-size="14" fill="#1F2937">予測は、言葉の上手さでは当たらない</text>
  <text x="170" y="292" text-anchor="middle" font-family="sans-serif" font-size="13" fill="#9CA3AF">要るのは説明ではなく、正解の付いた山</text>
</svg>
