<svg width="340" height="320" viewBox="0 0 340 320" preserveAspectRatio="xMidYMid meet" xmlns="http://www.w3.org/2000/svg">
  <text x="170" y="58" text-anchor="middle" font-family="sans-serif" font-size="13" fill="#9CA3AF">一本の仕事</text>

  <path d="M21.8 141.9 Q71 142 120 138.8" fill="none" stroke="#1E40AF" stroke-width="2" stroke-linejoin="round" stroke-linecap="round"/><path d="M21.8 141.9 Q70.9 140.5 120 138.8" fill="none" stroke="#1E40AF" stroke-width="2" stroke-linejoin="round" stroke-linecap="round"/>
  <path d="M34.2 132.8 Q33.7 140.6 32.4 148.2" fill="none" stroke="#1E40AF" stroke-width="1" stroke-linejoin="round" stroke-linecap="round"/><path d="M34.2 132.8 Q33.3 140.5 32.4 148.2" fill="none" stroke="#1E40AF" stroke-width="1" stroke-linejoin="round" stroke-linecap="round"/>
  <path d="M53.8 132.8 Q54.2 139.8 55.3 146.8" fill="none" stroke="#1E40AF" stroke-width="1" stroke-linejoin="round" stroke-linecap="round"/><path d="M53.8 132.8 Q54.2 139.8 55.3 146.8" fill="none" stroke="#1E40AF" stroke-width="1" stroke-linejoin="round" stroke-linecap="round"/>
  <path d="M73.1 130.3 Q74.9 139.2 74.9 148.2" fill="none" stroke="#1E40AF" stroke-width="1" stroke-linejoin="round" stroke-linecap="round"/><path d="M73.1 130.3 Q74.3 139.2 74.9 148.2" fill="none" stroke="#1E40AF" stroke-width="1" stroke-linejoin="round" stroke-linecap="round"/>
  <path d="M91.8 131.7 Q92.7 139.1 95 146.3" fill="none" stroke="#1E40AF" stroke-width="1" stroke-linejoin="round" stroke-linecap="round"/><path d="M91.8 131.7 Q93.7 138.9 95 146.3" fill="none" stroke="#1E40AF" stroke-width="1" stroke-linejoin="round" stroke-linecap="round"/>
  <path d="M112.5 132.2 Q114.7 139 116 146" fill="none" stroke="#1E40AF" stroke-width="1" stroke-linejoin="round" stroke-linecap="round"/><path d="M112.5 132.2 Q114.1 139.1 116 146" fill="none" stroke="#1E40AF" stroke-width="1" stroke-linejoin="round" stroke-linecap="round"/>

  <path d="M123.1 105.9 Q170.4 107.9 217.6 110.1 Q218.4 141.2 217.9 172.4 Q171.1 170.9 124.3 170.6 Q122.9 138.6 123 106.6" fill="none" stroke="#4B5563" stroke-width="1.5" stroke-dasharray="5 4" stroke-linejoin="round" stroke-linecap="round"/>
  <path d="M151 126.4 C150.7 129.2 148.3 131.2 145.6 130.9 C142.8 130.7 141 128.2 141.2 125.6 C141.5 122.9 143.8 120.9 146.4 121.1 C149.1 121.4 150.9 123.8 150.7 126.4" fill="none" stroke="#4B5563" stroke-width="1" stroke-linejoin="round" stroke-linecap="round"/><path d="M151.1 125.7 C151.3 128.6 149.3 131.2 146.3 131.4 C143.3 131.5 140.9 129.2 140.7 126.3 C140.6 123.4 142.7 120.7 145.7 120.6 C148.7 120.4 151.2 122.8 151.3 125.7" fill="none" stroke="#4B5563" stroke-width="1" stroke-linejoin="round" stroke-linecap="round"/>
  <path d="M176.3 151.8 C175.3 154.2 172.6 156.1 169.9 155 C167.2 153.8 166.2 150.6 167.3 148 C168.4 145.4 171.5 144.8 173.8 145.8 C176.1 146.8 177.8 149.4 176.7 152" fill="none" stroke="#4B5563" stroke-width="1" stroke-linejoin="round" stroke-linecap="round"/><path d="M175.8 147.5 C177.2 149.5 177 152.6 174.7 154.1 C172.5 155.6 169.4 155 167.9 152.8 C166.4 150.5 167.2 147.5 169.3 146.1 C171.5 144.6 174.5 145.1 176 147.3" fill="none" stroke="#4B5563" stroke-width="1" stroke-linejoin="round" stroke-linecap="round"/>
  <path d="M200.5 126.8 C199 129.3 195.7 129.5 193.5 128.1 C191.2 126.7 190 123.7 191.5 121.2 C193 118.8 196.3 117.8 198.8 119.4 C201.4 121 201.6 124.3 200.2 126.6" fill="none" stroke="#4B5563" stroke-width="1" stroke-linejoin="round" stroke-linecap="round"/><path d="M200.7 124.4 C200.4 127 198.5 129.7 195.5 129.4 C192.5 129.2 190.6 126.4 190.9 123.5 C191.1 120.7 193.5 118.3 196.5 118.6 C199.5 118.9 201.1 121.7 200.9 124.4" fill="none" stroke="#4B5563" stroke-width="1" stroke-linejoin="round" stroke-linecap="round"/>
  <text x="170" y="98" text-anchor="middle" font-family="sans-serif" font-size="12" fill="#4B5563">原っぱ</text>

  <path d="M222.5 140.2 Q269.4 140.6 316.3 138.6" fill="none" stroke="#1E40AF" stroke-width="2" stroke-linejoin="round" stroke-linecap="round"/><path d="M222.5 140.2 Q269.4 138.9 316.3 138.6" fill="none" stroke="#1E40AF" stroke-width="2" stroke-linejoin="round" stroke-linecap="round"/>
  <path d="M234.4 133.1 Q233.7 141.2 233.9 149.3" fill="none" stroke="#1E40AF" stroke-width="1" stroke-linejoin="round" stroke-linecap="round"/><path d="M234.4 133.1 Q233.4 141.2 233.9 149.3" fill="none" stroke="#1E40AF" stroke-width="1" stroke-linejoin="round" stroke-linecap="round"/>
  <path d="M252.8 131.3 Q253.3 139.1 252.4 146.8" fill="none" stroke="#1E40AF" stroke-width="1" stroke-linejoin="round" stroke-linecap="round"/><path d="M252.8 131.3 Q252.5 139.1 252.4 146.8" fill="none" stroke="#1E40AF" stroke-width="1" stroke-linejoin="round" stroke-linecap="round"/>
  <path d="M272.8 130.1 Q273.9 138.3 276 146.2" fill="none" stroke="#1E40AF" stroke-width="1" stroke-linejoin="round" stroke-linecap="round"/><path d="M272.8 130.1 Q274.3 138.2 276 146.2" fill="none" stroke="#1E40AF" stroke-width="1" stroke-linejoin="round" stroke-linecap="round"/>
  <path d="M294.3 130.5 Q293.9 140 291.9 149.4" fill="none" stroke="#1E40AF" stroke-width="1" stroke-linejoin="round" stroke-linecap="round"/><path d="M294.3 130.5 Q293.7 140 291.9 149.4" fill="none" stroke="#1E40AF" stroke-width="1" stroke-linejoin="round" stroke-linecap="round"/>
  <path d="M316.1 133.1 Q315.2 141.5 312.8 149.6" fill="none" stroke="#1E40AF" stroke-width="1" stroke-linejoin="round" stroke-linecap="round"/><path d="M316.1 133.1 Q314.4 141.3 312.8 149.6" fill="none" stroke="#1E40AF" stroke-width="1" stroke-linejoin="round" stroke-linecap="round"/>

  <text x="70" y="196" text-anchor="middle" font-family="sans-serif" font-size="12" fill="#1E40AF">書き下す</text>
  <text x="170" y="196" text-anchor="middle" font-family="sans-serif" font-size="12" fill="#4B5563">判断の要る一歩</text>
  <text x="270" y="196" text-anchor="middle" font-family="sans-serif" font-size="12" fill="#1E40AF">書き下す</text>

  <text x="170" y="230" text-anchor="middle" font-family="sans-serif" font-size="12" fill="#9CA3AF">境は道具ではなく、場所ごとに決まる</text>

  <text x="170" y="268" text-anchor="middle" font-family="sans-serif" font-size="14" fill="#1F2937">既定は線路。原っぱは要る所だけ開ける</text>
  <text x="170" y="292" text-anchor="middle" font-family="sans-serif" font-size="13" fill="#9CA3AF">決まっている所まで任せると、要らない揺れが出る</text>
</svg>
